<svg enable-background="new 0 0 368.5 120" viewBox="0 0 368.5 120" xmlns="http://www.w3.org/2000/svg"><g fill="#015090"><path d="m18.2 95.8h-17.1v-89.2h16.7v89.1h.4z"/><path d="m120 81.3c3.3 0 5.9-.7 7.8-2.6s3-4.1 3-7.1h16c0 4.5-1.1 8.5-3.7 11.9-2.2 3.7-5.6 6.3-9.7 8.5s-8.5 3-13.4 3c-9.3 0-16.3-3-21.9-8.9-5.3-5.9-7.9-14.1-7.9-24.1v-1.1c0-10 2.6-17.8 7.8-23.8s12.6-8.9 21.9-8.9c8.2 0 14.5 2.2 19.3 7.1 4.8 4.5 7.4 10.8 7.4 18.2h-16c0-3.3-1.1-5.9-3-8.2-1.9-2.2-4.5-3-7.8-3-4.1 0-7.1 1.5-8.9 4.5-2.2 3-3 7.8-3 14.1v1.9c0 6.7 1.1 11.5 3 14.5 2 2.5 5 4 9.1 4z"/><path d="m192.4 93.9c-.7-1.5-1.5-3.3-1.9-5.9-4.1 4.8-9.7 7.1-16.3 7.1-6.3 0-11.5-1.9-15.6-5.6s-6.3-8.2-6.3-13.7c0-6.7 2.6-12.3 7.4-15.6 5.2-3.7 12.3-5.6 21.9-5.6h7.8v-3.7c0-3-.7-5.2-2.2-7.1s-4.1-2.6-7.1-2.6-5.2.7-6.7 2.2-2.6 3.3-2.6 5.6h-17.1c0-3.7 1.1-7.1 3.3-10.4s5.6-5.6 9.7-7.4c4.1-1.9 8.9-2.6 14.1-2.6 7.8 0 14.1 1.9 18.9 5.9 4.8 4.1 7.1 9.7 7.1 16.7v27.9c0 5.9.7 10.8 2.6 13.7v1.1zm-14.5-12.2c2.6 0 4.8-.7 7.1-1.9 2.2-1.1 3.7-2.6 4.8-4.5v-11.1h-6.3c-8.5 0-13.4 3-13.7 8.9v1.1c0 2.2.7 4.1 2.2 5.2 1.4 1.1 3.3 2.3 5.9 2.3z"/></g><path d="m252.2 93.9c-.7-1.5-1.5-3.3-1.9-5.9-4.1 4.8-9.7 7.1-16.3 7.1-6.3 0-11.5-1.9-15.6-5.6s-6.3-8.2-6.3-13.7c0-6.7 2.6-12.3 7.4-15.6 5.2-3.7 12.3-5.6 21.9-5.6h7.8v-3.7c0-3-.7-5.2-2.2-7.1s-4.1-2.6-7.1-2.6-5.2.7-6.7 2.2-2.6 3.3-2.6 5.6h-17.1c0-3.7 1.1-7.1 3.3-10.4s5.6-5.6 9.7-7.4c4.1-1.9 8.9-2.6 14.1-2.6 7.8 0 14.1 1.9 18.9 5.9 4.8 4.1 7.1 9.7 7.1 16.7v27.9c0 5.9.7 10.8 2.6 13.7v1.1zm-14.5-12.2c2.6 0 4.8-.7 7.1-1.9 2.2-1.1 3.7-2.6 4.8-4.5v-11.1h-6.3c-8.5 0-13.4 3-13.7 8.9v1.1c0 2.2.7 4.1 2.2 5.2s3.3 2.3 5.9 2.3z" fill="#e94d27"/><path d="m296 14.1v16h11.1v12.6h-11.1v32.3c0 2.2.4 4.1 1.5 5.2.7 1.1 2.6 1.5 5.2 1.5 1.9 0 3.7 0 5.2-.4v13c-3.3 1.1-6.7 1.5-10.4 1.5-12.3 0-18.2-5.9-18.6-18.2v-34.9h-9.3v-12.7h9.3v-16h17.1z" fill="#015090"/><path d="m341.7 95c-9.3 0-17.1-3-23-8.5-5.9-5.9-8.9-13.4-8.9-23v-1.5c0-6.3 1.1-12.3 3.7-17.5s5.9-8.9 10.8-11.9c4.5-2.6 9.7-4.1 15.6-4.1 8.9 0 15.6 2.6 20.8 8.2s7.4 13.4 7.4 23.8v7.1h-41.2c.4 4.1 2.2 7.4 5.2 10s6.3 3.7 10.8 3.7c6.7 0 11.9-2.2 15.6-7.1l8.5 9.7c-2.6 3.7-5.9 6.7-10.4 8.5-4.9 1.5-9.7 2.6-14.9 2.6zm-1.8-53.1c-3.3 0-6.3 1.1-8.2 3.3-2.2 2.2-3.3 5.6-4.1 10h23.8v-1.5c0-3.7-1.1-6.7-3-8.9-2.2-1.8-5.2-2.9-8.5-2.9z" fill="#015090"/><path d="m240.7 6.6-8.6 14.9h17.1z" fill="#e94d27"/><path d="m259.3 27.1 15.2-26h-30.1z" fill="#015090"/><path d="m55.7 28.5c-16.3 0-29.7 13.4-29.7 29.8 0 4.8 1.1 9.7 3.7 14.1l24.5 44.2c.4.7 1.1 1.1 1.5 1.1.7 0 1.1-.4 1.5-1.1l24.5-44.2c2.2-4.5 3.7-9.3 3.7-14.1 0-16.4-13.4-29.8-29.7-29.8zm0 44.6c-8.2 0-14.9-6.7-14.9-14.9s6.7-14.9 14.9-14.9 14.9 6.7 14.9 14.9-6.7 14.9-14.9 14.9z" fill="#015090"/></svg>